<svg width="16" height="16" viewBox="0 0 16 16" fill="none" xmlns="http://www.w3.org/2000/svg">
  <path d="M7.57048 11.1773L1.57048 5.84399C1.43802 5.72721 1.35731 5.56264 1.34606 5.3864C1.33482 5.21017 1.39395 5.03668 1.51048 4.904C1.62727 4.77154 1.79184 4.69083 1.96807 4.67958C2.14431 4.66833 2.3178 4.72746 2.45048 4.844L8.01048 9.78399L13.5705 4.844C13.7043 4.73624 13.8745 4.68429 14.0456 4.69896C14.2168 4.71364 14.3757 4.79382 14.4891 4.92278C14.6026 5.05173 14.662 5.21952 14.6547 5.39115C14.6475 5.56277 14.5744 5.725 14.4505 5.84399L8.45048 11.1773C8.32882 11.2842 8.17242 11.3431 8.01048 11.3431C7.84854 11.3431 7.69214 11.2842 7.57048 11.1773Z" fill="#3F51B5" />
</svg>